<?xml version="1.0" standalone="no"?>
<!DOCTYPE svg PUBLIC "-//W3C//DTD SVG 20010904//EN"
 "http://www.w3.org/TR/2001/REC-SVG-20010904/DTD/svg10.dtd">
<svg version="1.0" xmlns="http://www.w3.org/2000/svg"
 width="512.000000pt" height="512.000000pt" viewBox="0 0 512.000000 512.000000"
 preserveAspectRatio="xMidYMid meet">

<g transform="translate(0.000000,512.000000) scale(0.100000,-0.100000)"
fill="#FFA501" stroke="none">
<path d="M2493 5102 c-40 -22 -1501 -1455 -1530 -1502 -45 -70 -20 -159 57
-197 43 -23 50 -23 412 -23 l368 0 0 -938 c0 -1062 -6 -985 81 -1030 l44 -22
650 2 c724 3 682 -1 725 71 19 31 20 58 20 975 l0 942 373 0 c334 0 375 2 406
18 75 38 103 135 59 202 -31 49 -1492 1481 -1531 1502 -18 9 -48 17 -67 17
-19 0 -49 -8 -67 -17z m618 -887 l541 -530 -264 -5 c-295 -6 -306 -8 -347 -80
-21 -38 -21 -42 -21 -974 l0 -936 -460 0 -460 0 0 936 c0 932 0 936 -21 974
-41 72 -52 74 -347 80 l-264 5 544 532 c298 293 546 532 550 530 4 -1 251
-240 549 -532z"/>
<path d="M1896 1220 c-125 -38 -139 -226 -20 -276 49 -21 1319 -21 1368 0 51
21 81 71 81 133 0 56 -18 90 -69 127 -27 21 -38 21 -679 23 -359 1 -665 -2
-681 -7z"/>
<path d="M1860 738 c-95 -65 -90 -194 11 -253 33 -19 52 -20 689 -20 637 0
656 1 689 20 54 32 76 69 76 128 0 38 -6 61 -22 83 -47 66 -22 64 -751 64
l-659 0 -33 -22z"/>
<path d="M1867 278 c-40 -24 -77 -86 -77 -132 0 -46 37 -104 80 -126 38 -19
57 -20 686 -20 627 0 649 1 689 20 105 51 111 180 11 254 -27 21 -38 21 -689
23 l-662 3 -38 -22z"/>
</g>
</svg>
