<svg xmlns="http://www.w3.org/2000/svg" xmlns:xlink="http://www.w3.org/1999/xlink" width="168" height="32" viewBox="0 0 168 32"><defs><path id="qr9ya" d="M52.5 47.92l9.06-15.1h-7.24v-11.1l-8.74 15.1h6.92zm1.1-28.89c13.96.1 23.02 8.79 28.13 15.96-5.28 7.16-14.42 15.56-28.32 15.66-.19.03-16.74.9-28.41-15.56 11.37-16.95 27.72-16.11 28.52-16.06zm84.22 5.45l-6.37 8.4.98-5.59h-5.3l6.37-8.38-.98 5.58zm13.4-5.24l-2.33 13.36h-3.12l.93-5.35h-4.58l-.94 5.35h-3.13l2.31-13.36h3.14l-.92 5.3h4.59l.92-5.3zm-27.64.01h3.14l-1.49 8.7a5.46 5.46 0 0 1-1.86 3.57 5.66 5.66 0 0 1-3.89 1.27c-.88 0-1.75-.22-2.53-.63a3.67 3.67 0 0 1-1.58-1.7 4.54 4.54 0 0 1-.34-2.5l1.46-8.7h3.15l-1.46 8.72c-.04.3-.04.58-.02.87a1.42 1.42 0 0 0 1.5 1.47c1.35.04 2.16-.74 2.43-2.34zm-13.48 4.8c.15-.38.2-.8.14-1.21-.13-.68-.58-1.04-1.35-1.08h-2.2l-.67 3.67h1.9c.48 0 .95-.12 1.36-.37.37-.24.66-.6.82-1zm2.27-3.72c.85.7 1.28 1.8 1.13 2.9-.03.86-.33 1.7-.86 2.4-.57.67-1.3 1.18-2.13 1.49l1.86 5.34v.16h-3.46l-1.52-4.72h-1.8l-.86 4.72h-3.25l2.4-13.35h4.88c1.56 0 2.76.35 3.61 1.06zm80 20.72h-1.75a2.4 2.4 0 0 0-.55-1.91 2.48 2.48 0 0 0-1.83-.7 3.4 3.4 0 0 0-2.1.6c-.55.37-.9.98-.97 1.64-.12.91.44 1.6 1.68 2.08l1.36.48.7.3c1.71.8 2.5 1.97 2.38 3.53-.05.72-.31 1.4-.76 1.95-.47.57-1.1 1.01-1.79 1.27a6.16 6.16 0 0 1-4.73-.11 3.74 3.74 0 0 1-1.58-1.45 3.64 3.64 0 0 1-.48-2.08h1.73c-.1.7.14 1.41.64 1.91.57.5 1.3.77 2.06.73.78.05 1.55-.16 2.2-.58.55-.36.92-.95 1-1.6.13-.99-.38-1.7-1.53-2.16l-1.58-.58-.53-.23c-1.79-.82-2.62-1.96-2.5-3.43.05-.71.31-1.4.76-1.96a4.36 4.36 0 0 1 1.77-1.31 5.7 5.7 0 0 1 2.35-.44c.75 0 1.5.2 2.16.54.61.33 1.11.83 1.44 1.44.34.64.49 1.35.44 2.07zm-19.54 3.7l-.04.82a4.5 4.5 0 0 0 .6 2.68 2.27 2.27 0 0 0 1.95 1.03c.82.05 1.63-.2 2.29-.7.6-.51 1.04-1.19 1.27-1.94h1.7a5.19 5.19 0 0 1-5.36 4.05c-.77 0-1.51-.2-2.16-.6-.64-.41-1.14-1-1.44-1.68a6.2 6.2 0 0 1-.57-2.43c-.02-.49 0-.98.06-1.46l.16-1.1a8.3 8.3 0 0 1 2.11-4.74 5.32 5.32 0 0 1 4.1-1.7c1.11-.03 2.2.42 2.97 1.22.7.79 1.1 1.79 1.14 2.83h-1.72c-.17-1.59-.9-2.45-2.17-2.59h-.3a3.55 3.55 0 0 0-2.89 1.29 6.99 6.99 0 0 0-1.5 3.64l-.2 1.39zm-3.98-7.56h1.71l-2.32 13.34h-1.71zm-2.13 0l-.26 1.43h-4.15l-2.06 11.9h-1.71l2.06-11.9h-4.15l1.06-1.43zm-13.04 0h2.05l-5.98 8.45-.86 4.89h-1.7l.87-5.08-2.98-8.26h1.87l2.2 6.69zm-15.32 11.9h6.15l-.26 1.44h-7.87l2.32-13.34h1.74zm-6.47-3.84l-1.05-5.86-3.08 5.86zm0-8.06l2.63 13.34h-1.7l-.68-3.85h-5.15l-2.02 3.85h-1.84l7.25-13.34zm-8.43 0l-2.32 13.34h-1.66l-4.77-10.36-1.8 10.36h-1.72l2.31-13.34h1.67l4.78 10.4 1.8-10.4zm-16.77 8.06l-1.05-5.86-3.09 5.86zm0-8.06l2.63 13.34h-1.7l-.68-3.85h-5.16l-2.01 3.85h-1.84l7.25-13.34z"/></defs><g><g transform="translate(-25 -19)"><g><use fill="#f34c2a" xlink:href="#qr9ya"/></g></g></g></svg>